<?xml version="1.0" encoding="utf-8"?>
<!-- Generator: Adobe Illustrator 15.1.0, SVG Export Plug-In . SVG Version: 6.00 Build 0)  -->
<!DOCTYPE svg PUBLIC "-//W3C//DTD SVG 1.1//EN" "http://www.w3.org/Graphics/SVG/1.1/DTD/svg11.dtd">
<svg version="1.1" id="Layer_1" xmlns="http://www.w3.org/2000/svg" xmlns:xlink="http://www.w3.org/1999/xlink" x="0px" y="0px"
	 width="720px" height="720px" viewBox="0 0 720 720" enable-background="new 0 0 720 720" xml:space="preserve">
<g id="Layer_3">
	<path d="M360.746,222.443c68.793,0,131.52,29.247,179.211,60.768l-45.354-78.52c-40.176-17.496-85.469-29.625-133.857-29.625
		c-48.388,0-93.681,12.129-133.856,29.625l-45.356,78.52C229.227,251.69,291.954,222.443,360.746,222.443z"/>
	<path d="M360.746,497.737c-104.861,0-195.762-67.971-240.548-108.336l-24.132,41.881
		c52.368,45.609,149.902,113.832,264.681,113.832c114.779,0,212.313-68.223,264.682-113.832l-24.131-41.881
		C556.508,429.767,465.607,497.737,360.746,497.737z"/>
	<path d="M360.746,516.688c-36.45,0-74.225-7.705-112.188-22.867c-29.943-11.938-60.201-28.552-89.764-49.398
		c-50.157-35.311-81.173-70.308-82.437-71.823c-6.313-7.146-6.313-17.873,0-25.015c1.264-1.454,32.28-36.514,82.437-71.826
		c29.563-20.783,59.821-37.397,89.764-49.398c37.964-15.16,75.739-22.867,112.188-22.867c36.449,0,74.225,7.707,112.189,22.867
		c29.943,12.001,60.201,28.615,89.764,49.398c50.158,35.313,81.174,70.372,82.436,71.826c6.313,7.142,6.313,17.869,0,25.015
		c-1.262,1.516-32.277,36.513-82.436,71.823c-29.563,20.847-59.82,37.46-89.764,49.398
		C434.971,508.982,397.195,516.688,360.746,516.688z M116.849,360.09c19.958,19.729,41.532,37.754,64.497,53.883
		c27.098,18.953,54.641,34.051,81.739,44.853c33.355,13.265,66.203,19.961,97.661,19.961c113.074,0,210.734-85.912,243.896-118.696
		c-19.977-19.687-41.549-37.688-64.496-53.82c-27.1-19.016-54.639-34.111-81.738-44.913c-33.355-13.203-66.203-19.962-97.662-19.962
		C247.673,241.395,150.013,327.305,116.849,360.09z"/>
	<path d="M360.746,469.185c-60.138,0-109.093-48.956-109.093-109.095s48.955-109.095,109.093-109.095
		c60.139,0,109.094,48.956,109.094,109.095S420.885,469.185,360.746,469.185z M360.746,288.897
		c-39.318,0-71.192,31.874-71.192,71.192s31.874,71.192,71.192,71.192c39.318,0,71.191-31.874,71.191-71.192l0,0
		C431.869,320.801,400.037,288.967,360.746,288.897L360.746,288.897z"/>
	<path d="M391.068,356.426c-11.373-0.007-20.586-9.234-20.576-20.609c0.006-6.596,3.17-12.791,8.512-16.66
		c-5.736-2.597-11.963-3.932-18.258-3.917c-24.771,0-44.85,20.082-44.85,44.851c0,24.771,20.079,44.852,44.85,44.852
		c24.771,0,44.852-20.081,44.852-44.852l0,0c-0.008-2.989-0.303-5.973-0.885-8.905C400.98,354.577,396.111,356.449,391.068,356.426z
		"/>
	<path d="M495.723,121.656c-8.516-8.342-8.66-22.009-0.32-30.524l42.279-43.173H315.218h-83.085h-0.211l-42.278,43.173
		c-8.339,8.516-8.196,22.183,0.32,30.524l42.169,41.296v0.116h0.119h83.299h222.46L495.723,121.656z M409.006,84.559l-66.025,55.623
		c-2.227,1.879-5.095,2.453-7.736,1.867c-2.534,0.625-4.743,0.254-5.555-1.178l-20.085-35.48c-1.156-2.04,0.945-5.416,4.692-7.536
		c3.746-2.122,7.721-2.188,8.877-0.145l13.661,24.132l60.583-51.038c3.797-3.2,9.469-2.715,12.67,1.081
		C413.287,75.685,412.803,81.357,409.006,84.559z"/>
	<path d="M531.529,598.347l-42.17-41.297v-0.118h-0.119h-83.299H183.482l42.29,41.415c8.515,8.342,8.659,22.006,0.32,30.521
		l-42.279,43.173h222.461h83.086h0.211l42.279-43.173C540.188,620.353,540.045,606.688,531.529,598.347z M394.449,638.016
		c2.809,2.811,2.809,7.364,0,10.173c-2.811,2.811-7.365,2.811-10.174,0l-23.529-23.526l-23.529,23.526
		c-2.809,2.811-7.364,2.811-10.174,0c-2.81-2.809-2.81-7.362,0-10.173l23.528-23.529l-23.528-23.527
		c-2.81-2.809-2.81-7.365,0-10.174c2.81-2.81,7.365-2.81,10.174,0l23.529,23.528l23.529-23.528c2.809-2.81,7.363-2.81,10.174,0
		c2.809,2.809,2.809,7.365,0,10.174l-23.529,23.527L394.449,638.016z"/>
	<g>
		<path d="M166.343,585.869C102.574,531.243,62.156,450.14,62.156,359.589c0-91.521,41.292-173.387,106.247-228.023
			c-3.752-2.003-6.832-5.37-8.747-9.561c-67.539,57.012-110.45,142.279-110.45,237.584c0,94.886,42.535,179.827,109.562,236.835
			C160.238,592.03,162.916,588.337,166.343,585.869z"/>
		<path d="M561.396,122.896c-2.1,4.112-5.348,7.352-9.244,9.143c64.635,54.636,105.691,136.29,105.691,227.551
			c0,90.233-40.131,171.091-103.512,225.709c3.555,2.282,6.395,5.846,8.053,10.151c66.363-57,108.408-141.517,108.408-235.86
			C670.793,264.779,628.33,179.902,561.396,122.896z"/>
	</g>
</g>
</svg>
