<?xml version="1.0" ?><!DOCTYPE svg  PUBLIC '-//W3C//DTD SVG 1.1//EN'  'http://www.w3.org/Graphics/SVG/1.1/DTD/svg11.dtd'><svg enable-background="new 0 0 150 150" height="150px" id="Слой_1" version="1.1" viewBox="0 0 150 150" width="150px" xml:space="preserve" xmlns="http://www.w3.org/2000/svg" xmlns:xlink="http://www.w3.org/1999/xlink"><g><path d="M18.0283203,114.1279297c0.3037109,0.0537109,0.7412109-0.8730469,1.5390625-2.496582   c0.7988281-1.6274414,1.9853516-3.9643555,3.5595703-6.8061523c3.1396484-5.6826172,7.8017578-13.3994141,13.4658203-21.5527344   c5.6533203-8.1591797,11.2832031-15.1586914,15.7841797-19.7509766c2.2392578-2.3110352,4.1904297-4.0141602,5.5810547-5.1577148   c0.3476563-0.2915039,0.65625-0.5507813,0.9238281-0.7753906c0.2753906-0.2109375,0.5068359-0.4013672,0.6884766-0.5688477   c0.3632813-0.3354492,0.5332031-0.5795898,0.4736328-0.7138672S59.6982422,56.1538086,59.1943359,56.25   c-0.2519531,0.0478516-0.5585938,0.1245117-0.9169922,0.2290039c-0.3476563,0.121582-0.7382813,0.2841797-1.1806641,0.472168   c-1.7519531,0.7675781-4.1269531,2.2128906-6.7431641,4.3486328C45.0869141,65.5483398,38.8867188,72.496582,33.1015625,80.847168   c-5.7988281,8.3486328-10.1552734,16.4892578-12.6865234,22.684082c-1.2695313,3.0947266-2.0742188,5.7089844-2.4179688,7.5820313   C17.6513672,112.9912109,17.7548828,114.0825195,18.0283203,114.1279297z" fill="#024421"/><g><g><path d="M90.0957031,34.2749023c-0.5234375-10.0351563-16.1953125-11.9731445-26.5390625,8.8720703     c10.2988281-20.7519531-0.3964844-31.8383789-8.8515625-26.5136719     c-2.4052734,1.5146484-3.6035156,4.4018555-3.6035156,4.4018555s-2.7001953-1.574707-5.5322266-1.3256836     c-9.9541016,0.8725586-11.7666016,16.1704102,8.9853516,26.4682617     c-20.2050781-10.027832-31.8164063-0.03125-26.5732422,8.0678711c1.6982422,2.6245117,5.1767578,4.0395508,5.1767578,4.0395508     s-1.9199219,3.2695313-1.7050781,6.4052734c0.6621094,9.6977539,16.0488281,10.8071289,26.1328125-9.512207     c-9.9941406,20.1381836-0.0429688,31.8720703,7.9716797,26.5791016c2.6728516-1.7651367,4.1621094-5.4238281,4.1621094-5.4238281     s3.3974609,2.0141602,6.5947266,1.8022461c9.5830078-0.6333008,10.4101563-15.9951172-9.7265625-25.987793     c19.96875,9.909668,31.5292969,0.3818359,26.5898438-7.7304688c-1.5488281-2.5449219-4.7558594-3.8100586-4.7558594-3.8100586     S90.2568359,37.3916016,90.0957031,34.2749023z" fill="#006633"/><path d="M61.6025391,82.9233398c-2.5693359,0-4.9619141-1.4814453-6.5634766-4.0644531     c-2.7089844-4.3681641-2.8505859-10.84375-0.5439453-18.0454102c-5.3408203,7.628418-11.3417969,10.5-15.6757813,10.5     c-4.4785156,0-7.5654297-2.8227539-7.8642578-7.1914063c-0.1748047-2.5595703,0.9726563-5.1494141,1.5097656-6.2045898     c-1.0605469-0.5097656-3.5166016-1.8613281-4.9023438-4.0029297c-1.5927734-2.4599609-1.765625-5.2329102-0.4736328-7.6074219     c1.8535156-3.4077148,6.2822266-5.4423828,11.8476563-5.4423828c2.8808594,0,6.0332031,0.5439453,9.3222656,1.5952148     c-8.6689453-6.0444336-11.0507813-12.8081055-10.2050781-17.2871094c0.6992188-3.7060547,3.5625-6.2211914,7.4726563-6.5639648     c2.265625-0.1982422,4.4150391,0.6855469,5.3457031,1.1391602c0.4677734-0.925293,1.6435547-2.9287109,3.5673828-4.140625     c1.4580078-0.9174805,3.0507813-1.402832,4.6083984-1.402832c2.8300781,0,5.4248047,1.5664063,7.1191406,4.2978516     c1.3691406,2.2089844,3.7333984,7.8847656,0.5478516,17.706543c4.6113281-6.5668945,10.1738281-10.3295898,15.5693359-10.3295898     c4.7294922,0,8.0693359,3.121582,8.3115234,7.7670898c0.1308594,2.5327148-0.9667969,5.0761719-1.4833984,6.1186523     c1.0029297,0.4799805,3.2382813,1.7270508,4.4931641,3.7900391c1.4892578,2.4458008,1.6025391,5.1669922,0.3105469,7.4658203     c-1.8496094,3.2929688-6.203125,5.2587891-11.6425781,5.2587891c-0.0009766,0-0.0009766,0-0.0009766,0     c-2.9101563,0-6.0996094-0.5556641-9.4316406-1.6289063c8.3369141,5.8496094,11.3046875,12.6879883,10.3359375,17.5336914     c-0.6845703,3.4243164-3.2373047,5.6103516-6.828125,5.8476563c-2.6123047,0.1748047-5.3125-1.0449219-6.3935547-1.6035156     c-0.5234375,1.0991211-1.9296875,3.6962891-4.1210938,5.1430664     C64.4765625,82.46875,63.0527344,82.9233398,61.6025391,82.9233398z M58.0351563,54.7978516     C53.375,64.1870117,52.5732422,72.984375,55.8886719,78.331543c1.4150391,2.2827148,3.4980469,3.5917969,5.7138672,3.5917969     c1.2509766,0,2.4892578-0.3989258,3.6806641-1.1855469c2.5146484-1.6606445,3.9599609-5.1601563,3.9746094-5.1953125     c0.0546875-0.1347656,0.1650391-0.2387695,0.3037109-0.2851563c0.1376953-0.046875,0.2890625-0.03125,0.4140625,0.043457     c0.03125,0.0185547,3.3007813,1.9335938,6.3066406,1.7333984c3.1123047-0.2055664,5.3232422-2.0917969,5.9130859-5.0458984     c1.0996094-5.4970703-3.3691406-13.8120117-15.8291016-19.9951172l0,0     c-0.2470703-0.1225586-0.3476563-0.4228516-0.2255859-0.6699219c0.1230469-0.2480469,0.4228516-0.3476563,0.6708984-0.2255859     c0.0039063,0.0024414,0.0087891,0.0043945,0.0136719,0.0068359c5.5078125,2.7314453,10.8496094,4.175293,15.4472656,4.175293     h0.0009766c5.0742188,0,9.1005859-1.7749023,10.7714844-4.7485352c1.1259766-2.0039063,1.0214844-4.296875-0.2929688-6.4560547     c-1.4404297-2.3666992-4.4824219-3.5932617-4.5126953-3.6054688c-0.1347656-0.0532227-0.2402344-0.1625977-0.2880859-0.2993164     c-0.0478516-0.1362305-0.0341797-0.2871094,0.0371094-0.4130859c0.0175781-0.0307617,1.7607422-3.1303711,1.609375-6.059082     c-0.2128906-4.0786133-3.1523438-6.8188477-7.3134766-6.8188477c-5.0253906,0-12.4658203,4.1738281-18.2783203,15.887207l0,0     c-0.1240234,0.2485352-0.421875,0.3481445-0.6708984,0.2255859c-0.2470703-0.1225586-0.3476563-0.4228516-0.2255859-0.6699219     c4.6357422-9.3393555,5.4599609-18.046875,2.2070313-23.2929688c-1.5068359-2.4306641-3.7919922-3.824707-6.2685547-3.824707     c-1.3876953,0-2.7587891,0.4204102-4.0751953,1.2490234c-2.2373047,1.4086914-3.3974609,4.1435547-3.4082031,4.1708984     c-0.0556641,0.1333008-0.1660156,0.2358398-0.3027344,0.2817383c-0.1357422,0.0473633-0.2871094,0.03125-0.4111328-0.0415039     c-0.0234375-0.0141602-2.6025391-1.4980469-5.2363281-1.2597656c-3.4970703,0.3066406-5.9560547,2.4575195-6.578125,5.753418     c-0.9521484,5.043457,2.5986328,13.2470703,15.7421875,19.769043l0,0     c0.2470703,0.1225586,0.3476563,0.4228516,0.2255859,0.6699219c-0.1240234,0.2485352-0.421875,0.3486328-0.6708984,0.2255859     c-5.4804688-2.7202148-10.8046875-4.1582031-15.3964844-4.1582031c-5.1933594,0-9.2939453,1.8393555-10.9697266,4.9204102     c-1.1269531,2.0727539-0.9726563,4.4116211,0.4355469,6.5864258c1.5898438,2.4570313,4.9121094,3.8344727,4.9453125,3.8481445     c0.1347656,0.0546875,0.2382813,0.1650391,0.2851563,0.3027344c0.0458984,0.137207,0.03125,0.2880859-0.0419922,0.4130859     c-0.0185547,0.03125-1.8388672,3.1782227-1.6376953,6.1181641c0.2597656,3.8027344,2.9550781,6.2597656,6.8662109,6.2597656     c5.0273438,0,12.4794922-4.1928711,18.3193359-15.9599609c0.1240234-0.2485352,0.4228516-0.3476563,0.6708984-0.2255859     C58.0566406,54.2504883,58.1572266,54.5507813,58.0351563,54.7978516z" fill="#024421"/><path d="M67.15625,61.8564453c-1.4150391-4.3525391-4.4472656-11.2832031-5.3701172-11.2832031     c-0.0527344,0-0.1103516,0.0087891-0.1601563,0.0258789c-1.1552734,0.3808594,1.0888672,9.3486328,2.0742188,12.3808594     c1.5292969,4.7075195,4.5566406,11.2587891,5.4433594,11.2607422c0,0,0,0,0.0009766,0     c0.0527344,0,0.109375-0.0087891,0.1591797-0.0253906C70.4658203,73.8349609,68.0498047,64.6064453,67.15625,61.8564453z" fill="#024421"/><path d="M86.1181641,40.1665039c-1.1474609,0-6.1337891,0.7265625-11.6679688,2.5244141     c-2.75,0.894043-11.6367188,4.3652344-11.2578125,5.5307617c0.125,0.378418,0.5302734,0.378418,0.7246094,0.378418     c1.0537109,0,5.9667969-0.6040039,11.65625-2.453125c3.0322266-0.9848633,11.6054688-4.4404297,11.2353516-5.6049805     C86.6845703,40.1665039,86.2880859,40.1665039,86.1181641,40.1665039z" fill="#024421"/><path d="M57.8681641,49.1665039c-1.1474609,0-6.1337891,0.7265625-11.6679688,2.5244141     c-2.75,0.894043-11.6367188,4.3652344-11.2578125,5.5307617c0.125,0.378418,0.5302734,0.378418,0.7246094,0.378418     c1.0537109,0,5.9667969-0.6040039,11.65625-2.453125c3.0322266-0.9848633,11.6054688-4.4404297,11.2353516-5.6049805     C58.4345703,49.1665039,58.0380859,49.1665039,57.8681641,49.1665039z" fill="#024421"/><path d="M58.03125,33.9814453c-1.4150391-4.3525391-4.4472656-11.2832031-5.3701172-11.2832031     c-0.0527344,0-0.1103516,0.0087891-0.1601563,0.0258789c-1.1552734,0.3808594,1.0888672,9.3486328,2.0742188,12.3808594     c1.5292969,4.7075195,4.5566406,11.2587891,5.4433594,11.2607422c0,0,0,0,0.0009766,0     c0.0527344,0,0.109375-0.0087891,0.1591797-0.0253906C61.3408203,45.9599609,58.9248047,36.7314453,58.03125,33.9814453z" fill="#024421"/></g><g><path d="M83.0029297,93.1787109c-3.2753906-6.5664063-14.3330078-3.2963867-15.1845703,13.675293     c0.8476563-16.8959961-9.5439453-21.2026367-13.6533203-15.1728516     c-1.1689453,1.7148438-1.1298828,3.9975586-1.1298828,3.9975586s-2.2666016-0.2675781-4.0908203,0.7246094     c-6.4101563,3.4848633-3.1650391,14.2568359,13.7304688,15.1030273     c-16.4511719-0.8251953-21.3115234,9.2519531-15.4414063,13.1469727c1.9023438,1.262207,4.6435547,1.1958008,4.6435547,1.1958008     s-0.3320313,2.7485352,0.7255859,4.7861328c3.2695313,6.300293,13.8955078,2.5585938,14.7255859-13.9858398     c-0.8232422,16.3969727,9.2597656,21.3535156,13.0839844,15.4731445     c1.2744141-1.9604492,1.2050781-4.8447266,1.2050781-4.8447266s2.8613281,0.3588867,4.9414063-0.7148438     c6.2314453-3.2172852,2.3085938-13.7441406-14.0869141-14.565918     c16.2587891,0.8154297,21.2216797-8.9331055,15.5507813-12.925293c-1.7783203-1.2524414-4.2939453-1.1650391-4.2939453-1.1650391     S84.0195313,95.21875,83.0029297,93.1787109z" fill="#006633"/><path d="M78.1035156,134.0561523c-1.7207031,0.7490234-3.7539063,0.4541016-5.5800781-0.8085938     c-3.0869141-2.1352539-5.0693359-6.4296875-5.6230469-11.9238281     c-1.3525391,6.6640625-4.5341797,10.3359375-7.4355469,11.5986328c-2.9980469,1.3056641-5.8886719,0.3149414-7.3613281-2.5229492     c-0.8632813-1.6625977-0.8496094-3.730957-0.7978516-4.5942383c-0.8583984-0.0322266-2.8974609-0.2211914-4.4492188-1.2514648     c-1.7832031-1.1831055-2.7070313-2.9892578-2.5341797-4.9555664c0.2480469-2.8222656,2.6210938-5.4750977,6.3466797-7.0966797     c1.9287109-0.8398438,4.1982422-1.3945313,6.7070313-1.6494141c-7.5654297-1.5205078-11.1318359-5.3549805-11.8710938-8.6000977     c-0.6123047-2.6855469,0.5722656-5.2041016,3.0908203-6.5732422c1.4589844-0.7929688,3.1552734-0.8276367,3.9111328-0.7949219     c0.0429688-0.7558594,0.2460938-2.4399414,1.1816406-3.8125c0.7089844-1.0390625,1.6337891-1.828125,2.6767578-2.2822266     c1.8945313-0.824707,4.0888672-0.5322266,6.0185547,0.8032227c1.5615234,1.0800781,4.7978516,4.190918,5.5283203,11.6958008     c1.1728516-5.7407227,3.8007813-9.8808594,7.4140625-11.4536133c3.1669922-1.378418,6.3125-0.2617188,7.828125,2.777832     c0.8261719,1.6577148,0.8320313,3.6806641,0.7900391,4.5292969c0.8115234,0.0288086,2.6708984,0.2128906,4.1132813,1.2280273     c1.7099609,1.2036133,2.5791016,2.9926758,2.3837891,4.9086914c-0.2783203,2.7436523-2.6210938,5.3286133-6.2626953,6.9140625     c-0.0009766,0-0.0009766,0-0.0009766,0c-1.9482422,0.8481445-4.2460938,1.4057617-6.7890625,1.6582031     c7.2871094,1.4873047,11.2666016,5.2006836,12.0292969,8.7275391c0.5410156,2.4926758-0.53125,4.7001953-2.8662109,5.9052734     c-1.6992188,0.878418-3.8623047,0.8491211-4.7490234,0.7900391c-0.0302734,0.8881836-0.2148438,3.0371094-1.2607422,4.6445313     C79.8945313,132.9145508,79.0742188,133.6337891,78.1035156,134.0561523z M67.5175781,116.2641602     c-0.3837891,7.6445313,1.6435547,13.769043,5.4208984,16.3828125c1.6132813,1.1157227,3.3896484,1.3852539,4.8730469,0.7397461     c0.8378906-0.3647461,1.5498047-0.9926758,2.1191406-1.8666992c1.2001953-1.8447266,1.1474609-4.6088867,1.1464844-4.6367188     c-0.0019531-0.105957,0.0419922-0.2084961,0.1210938-0.2797852c0.078125-0.0708008,0.1845703-0.1049805,0.2900391-0.0913086     c0.0253906,0.003418,2.7734375,0.3330078,4.7275391-0.6777344c2.0234375-1.0444336,2.9550781-2.9516602,2.4892578-5.1015625     c-0.8662109-4.0009766-6.2822266-8.265625-16.4267578-8.7749023l0,0     c-0.2011719-0.0097656-0.3564453-0.1816406-0.3457031-0.3828125c0.0097656-0.2016602,0.1816406-0.355957,0.3828125-0.3466797     c0.0029297,0.0009766,0.0078125,0.0004883,0.0107422,0.0009766c4.484375,0.2231445,8.4814453-0.3662109,11.5595703-1.7060547     l0.0009766-0.0004883c3.3974609-1.4790039,5.5761719-3.8408203,5.8291016-6.3193359     c0.1699219-1.6699219-0.5693359-3.1743164-2.0791016-4.2368164c-1.6542969-1.1650391-4.046875-1.0996094-4.0712891-1.0991211     c-0.1064453,0.0039063-0.2089844-0.0385742-0.2802734-0.1166992c-0.0712891-0.0771484-0.1064453-0.1816406-0.0957031-0.2871094     c0.0029297-0.0258789,0.2666016-2.6088867-0.6875-4.5258789c-1.3320313-2.6689453-4.0986328-3.6469727-6.8847656-2.434082     c-3.3652344,1.4643555-7.1298828,6.4272461-7.6083984,15.9643555l0,0     c-0.0107422,0.203125-0.1806641,0.355957-0.3828125,0.3461914c-0.2011719-0.0097656-0.3564453-0.1816406-0.3466797-0.3828125     c0.3818359-7.6040039-1.6035156-13.6743164-5.3105469-16.2387695c-1.7177734-1.1879883-3.6533203-1.4560547-5.3115234-0.734375     c-0.9296875,0.4047852-1.7255859,1.0859375-2.3652344,2.0244141c-1.0878906,1.5952148-1.0673828,3.7646484-1.0664063,3.7861328     c0.0009766,0.1054688-0.0419922,0.2055664-0.1201172,0.2763672c-0.078125,0.0717773-0.1835938,0.1049805-0.2880859,0.0922852     c-0.0195313-0.0029297-2.1787109-0.2446289-3.8730469,0.6826172c-2.2519531,1.2246094-3.2714844,3.3808594-2.7275391,5.769043     c0.8330078,3.6547852,5.6005859,8.112793,16.3017578,8.6489258l0,0c0.2011719,0.0102539,0.3564453,0.1816406,0.3466797,0.3823242     c-0.0107422,0.203125-0.1816406,0.3569336-0.3837891,0.347168c-4.4619141-0.2241211-8.4462891,0.3647461-11.5205078,1.703125     c-3.4775391,1.5131836-5.6875,3.9404297-5.9111328,6.4916992c-0.1503906,1.7158203,0.6337891,3.2368164,2.2109375,4.2827148     c1.78125,1.1821289,4.40625,1.1362305,4.4326172,1.1352539c0.1064453-0.0024414,0.2080078,0.0415039,0.2792969,0.1196289     s0.1054688,0.1835938,0.0927734,0.2890625c-0.0039063,0.0258789-0.3046875,2.6635742,0.6855469,4.5732422     c1.2822266,2.4711914,3.8037109,3.3300781,6.4228516,2.1904297c3.3652344-1.465332,7.1328125-6.4438477,7.6142578-16.0253906     c0.0107422-0.2021484,0.1816406-0.3554688,0.3837891-0.3461914     C67.3720703,115.8911133,67.5273438,116.0629883,67.5175781,116.2641602z" fill="#024421"/><path d="M75.6816406,118.331543c-2.2158203-2.5014648-6.2666016-6.2583008-6.8837891-5.9892578     c-0.0351563,0.0151367-0.0712891,0.0380859-0.0996094,0.0639648c-0.6621094,0.5913086,3.4541016,5.9418945,4.9970703,7.6850586     c2.3955078,2.706543,6.3320313,6.2109375,6.9267578,5.953125c0,0,0,0,0.0009766,0     c0.0341797-0.015625,0.0703125-0.0380859,0.0986328-0.0634766     C81.3896484,125.3876953,77.0820313,119.9130859,75.6816406,118.331543z" fill="#024421"/><path d="M82.0566406,98.2827148c-0.7685547,0.3344727-3.8955078,2.2744141-7.0761719,5.0913086     c-1.5810547,1.3999023-6.5195313,6.3134766-5.9257813,6.9838867c0.1933594,0.2167969,0.4648438,0.0991211,0.5947266,0.0419922     c0.7060547-0.3071289,3.8193359-2.1430664,7.0898438-5.0395508c1.7431641-1.5429688,6.4765625-6.3549805,5.8886719-7.0268555     C82.4365234,98.1176758,82.1699219,98.2333984,82.0566406,98.2827148z" fill="#024421"/><path d="M65.7646484,112.5419922c-0.7675781,0.3344727-3.8955078,2.2744141-7.0761719,5.0908203     c-1.5810547,1.4003906-6.5205078,6.3144531-5.9267578,6.984375c0.1943359,0.2167969,0.4658203,0.0986328,0.5957031,0.0424805     c0.7050781-0.3071289,3.8193359-2.1435547,7.0888672-5.0400391c1.7441406-1.5429688,6.4775391-6.3554688,5.890625-7.0273438     C66.1435547,112.3769531,65.8789063,112.4926758,65.7646484,112.5419922z" fill="#024421"/><path d="M61.4482422,102.3271484c-2.2167969-2.5014648-6.2666016-6.2583008-6.8837891-5.9897461     c-0.0361328,0.015625-0.0722656,0.0385742-0.0996094,0.0644531c-0.6630859,0.5913086,3.453125,5.9418945,4.9960938,7.6850586     c2.3964844,2.7060547,6.3320313,6.2109375,6.9277344,5.953125l0,0c0.0351563-0.015625,0.0703125-0.0380859,0.0986328-0.0629883     C67.1552734,109.3833008,62.8486328,103.9082031,61.4482422,102.3271484z" fill="#024421"/></g><g><path d="M120.9433594,58.6938477c-6.0214844-4.1943359-14.1611328,3.9736328-6.7763672,19.2788086     c-7.3515625-15.2368164-18.5361328-14.0380859-19.2539063-6.7763672     c-0.2050781,2.0649414,0.9228516,4.0498047,0.9228516,4.0498047s-2.1171875,0.8510742-3.2431641,2.5961914     c-3.9570313,6.1298828,4.0527344,14.0302734,19.2880859,6.6782227     c-14.8359375,7.1577148-14.2734375,18.331543-7.2548828,18.9379883c2.2744141,0.1967773,4.6484375-1.175293,4.6484375-1.175293     s1.0253906,2.5717773,2.9306641,3.8535156c5.8876953,3.9638672,13.421875-4.4116211,6.2246094-19.3310547     c7.1328125,14.7866211,18.3583984,14.3066406,18.8974609,7.3129883c0.1796875-2.331543-1.2636719-4.8300781-1.2636719-4.8300781     s2.6835938-1.0556641,3.9951172-2.9946289c3.9287109-5.8095703-4.5585938-13.1704102-19.34375-6.0361328     c14.6621094-7.0742188,14.3476563-18.0087891,7.4570313-18.7958984c-2.1601563-0.2475586-4.3271484,1.034668-4.3271484,1.034668     S122.8125,59.9975586,120.9433594,58.6938477z" fill="#006633"/><path d="M136.2275391,96.921875c-1.1513672,1.4819336-3.078125,2.1972656-5.2861328,1.9638672     c-3.7324219-0.3955078-7.5292969-3.215332-10.6484375-7.7724609c2.0058594,6.4975586,0.9726563,11.2446289-0.96875,13.7431641     c-2.0058594,2.5825195-5.0185547,3.0976563-7.6708984,1.3125c-1.5537109-1.0458984-2.5332031-2.8676758-2.9013672-3.6503906     c-0.7685547,0.3828125-2.6494141,1.1938477-4.5048828,1.0332031c-2.1318359-0.184082-3.8076172-1.3271484-4.5986328-3.1357422     c-1.1347656-2.5961914-0.3222656-6.0615234,2.1708984-9.2700195c1.2900391-1.6611328,3.0166016-3.2353516,5.0966797-4.6611328     c-7.3691406,2.2900391-12.3369141,0.6333008-14.5400391-1.8608398c-1.8242188-2.0639648-1.9912109-4.8422852-0.4365234-7.2509766     c0.9003906-1.3950195,2.3730469-2.237793,3.0527344-2.5712891c-0.3251953-0.684082-0.953125-2.2597656-0.7900391-3.9125977     c0.125-1.2519531,0.5585938-2.3876953,1.2558594-3.2856445c1.2685547-1.6318359,3.3339844-2.4262695,5.6679688-2.1787109     c1.8876953,0.2001953,6.2197266,1.3798828,10.4560547,7.6176758c-1.7207031-5.6010742-1.3974609-10.4941406,1.0205078-13.605957     c2.1191406-2.7270508,5.4150391-3.2539063,8.2021484-1.3120117c1.5195313,1.059082,2.4931641,2.8320313,2.8632813,3.597168     c0.7255859-0.3637695,2.4462891-1.0927734,4.1992188-0.8930664c2.0771484,0.2373047,3.6972656,1.3911133,4.4433594,3.1665039     c1.0703125,2.5415039,0.2529297,5.9331055-2.1845703,9.0693359C130.125,73.0649414,130.125,73.0649414,130.125,73.0649414     c-1.3027344,1.6777344-3.0527344,3.2685547-5.1640625,4.7084961c7.1083984-2.1860352,12.3808594-0.8330078,14.7402344,1.8969727     c1.6689453,1.9287109,1.7851563,4.3803711,0.3134766,6.5566406c-1.0703125,1.5854492-2.9833984,2.5957031-3.7900391,2.96875     c0.3984375,0.7944336,1.2666016,2.769043,1.1181641,4.6806641     C137.2519531,95.0615234,136.8769531,96.0859375,136.2275391,96.921875z M118.4111328,86.3764648     c3.3251953,6.894043,8.0390625,11.2983398,12.6074219,11.7832031c1.9501953,0.2060547,3.6386719-0.4082031,4.6318359-1.6855469     c0.5605469-0.7216797,0.8847656-1.6137695,0.9658203-2.6538086c0.1689453-2.1943359-1.2011719-4.5952148-1.2158203-4.6191406     c-0.0517578-0.0922852-0.0625-0.203125-0.0273438-0.3037109c0.0341797-0.0996094,0.1113281-0.1806641,0.2109375-0.2192383     c0.0234375-0.0092773,2.59375-1.0361328,3.8242188-2.8598633c1.2763672-1.8862305,1.1806641-4.0063477-0.2587891-5.6704102     c-2.6767578-3.0966797-9.4746094-4.2451172-18.6230469,0.1679688l0,0     c-0.1806641,0.0878906-0.3994141,0.0112305-0.4863281-0.1704102c-0.0878906-0.1816406-0.0117188-0.3994141,0.1699219-0.487793     c0.0029297-0.0004883,0.0068359-0.003418,0.0097656-0.0043945c4.0429688-1.9526367,7.2685547-4.3847656,9.3291016-7.0356445     v-0.0009766c2.2744141-2.9257813,3.0546875-6.0429688,2.0898438-8.3393555     c-0.6513672-1.5473633-2.0214844-2.5136719-3.8554688-2.7226563c-2.0097656-0.2304688-4.0791016,0.9736328-4.0996094,0.9858398     c-0.0917969,0.0541992-0.2021484,0.065918-0.3027344,0.0317383c-0.0996094-0.0336914-0.1796875-0.1083984-0.2207031-0.2060547     c-0.0107422-0.0244141-1.0166016-2.4179688-2.7724609-3.6435547c-2.4482422-1.7045898-5.3447266-1.2373047-7.2089844,1.1621094     C110.9257813,62.7822266,110,68.9423828,114.1484375,77.5429688l0,0     c0.0878906,0.1835938,0.0126953,0.3989258-0.1699219,0.4873047c-0.1806641,0.0878906-0.3994141,0.0112305-0.4873047-0.1699219     c-3.3085938-6.8574219-7.9589844-11.234375-12.4414063-11.7094727c-2.0771484-0.2197266-3.9042969,0.472168-5.0146484,1.9003906     c-0.6220703,0.8007813-0.9941406,1.7797852-1.1054688,2.9101563c-0.1914063,1.9213867,0.8662109,3.8154297,0.8779297,3.8339844     c0.0507813,0.0922852,0.0615234,0.2006836,0.0263672,0.300293c-0.0341797,0.1005859-0.1103516,0.1801758-0.2080078,0.21875     c-0.0185547,0.0068359-2.0302734,0.8291016-3.0732422,2.4550781c-1.3896484,2.1538086-1.2519531,4.534668,0.3701172,6.3706055     c2.4824219,2.8085938,8.8027344,4.4375,18.453125-0.21875l0,0c0.1806641-0.0874023,0.3994141-0.0112305,0.4873047,0.1694336     c0.0878906,0.1835938,0.0117188,0.4003906-0.1708984,0.4887695c-4.0234375,1.940918-7.2392578,4.3666992-9.2958984,7.0141602     c-2.3271484,2.9946289-3.1044922,6.1835938-2.078125,8.5302734c0.6894531,1.578125,2.1064453,2.5375977,3.9921875,2.7001953     c2.1298828,0.184082,4.4121094-1.1137695,4.4345703-1.1274414c0.0927734-0.0532227,0.2021484-0.0629883,0.3027344-0.0288086     c0.0996094,0.034668,0.1806641,0.1108398,0.2197266,0.2094727c0.0087891,0.0244141,1.0087891,2.4838867,2.7929688,3.6855469     c2.3095703,1.5546875,4.9335938,1.1005859,6.6875-1.1547852c2.2509766-2.8984375,3.1728516-9.0732422-0.9951172-17.7143555     c-0.0869141-0.1826172-0.0107422-0.3989258,0.1708984-0.487793     C118.1044922,86.1186523,118.3232422,86.1953125,118.4111328,86.3764648z" fill="#024421"/><path d="M126.5673828,84.2797852c-3.1435547-1.1342773-8.4990234-2.4907227-8.9111328-1.9589844     c-0.0244141,0.0302734-0.0449219,0.0673828-0.0576172,0.1040039c-0.2978516,0.8359375,5.8789063,3.5605469,8.0683594,4.3510742     c3.3994141,1.2280273,8.5341797,2.4179688,8.9326172,1.9067383c0,0,0,0,0.0009766-0.0004883     c0.0224609-0.0297852,0.0429688-0.0668945,0.0556641-0.1030273     C134.9580078,87.7387695,128.5546875,84.9970703,126.5673828,84.2797852z" fill="#024421"/><path d="M122.5576172,63.6274414c-0.5146484,0.6616211-2.3291016,3.862793-3.7714844,7.859375     c-0.7177734,1.9863281-2.6982422,8.6650391-1.8554688,8.9692383c0.2734375,0.0976563,0.4550781-0.1357422,0.5419922-0.2480469     c0.4726563-0.6079102,2.3261719-3.7109375,3.8085938-7.8203125c0.7910156-2.1894531,2.640625-8.6811523,1.8017578-8.9892578     C122.8125,63.3007813,122.6337891,63.5297852,122.5576172,63.6274414z" fill="#024421"/><path d="M115.0888672,83.9492188c-0.5136719,0.6616211-2.3291016,3.862793-3.7714844,7.8588867     c-0.7177734,1.9868164-2.6982422,8.6665039-1.8564453,8.9702148c0.2744141,0.097168,0.4560547-0.1367188,0.5429688-0.2480469     c0.4716797-0.6074219,2.3261719-3.7114258,3.8076172-7.8203125c0.7919922-2.1899414,2.640625-8.6821289,1.8037109-8.9907227     C115.3427734,83.6230469,115.1660156,83.8510742,115.0888672,83.9492188z" fill="#024421"/><path d="M106.40625,77.0512695c-3.1445313-1.1337891-8.4990234-2.4907227-8.9121094-1.9594727     c-0.0244141,0.0307617-0.0449219,0.0683594-0.0566406,0.1044922c-0.2988281,0.8364258,5.8779297,3.5610352,8.0673828,4.3515625     c3.4003906,1.2270508,8.5341797,2.4179688,8.9335938,1.90625l0,0c0.0224609-0.0302734,0.0429688-0.0668945,0.0556641-0.1025391     C114.7958984,80.5102539,108.3925781,77.7680664,106.40625,77.0512695z" fill="#024421"/></g></g></g></svg>